<svg preserveAspectRatio="none" overflow="visible" style="display: block;" width="95.0001" height="95" viewBox="0 0 95.0001 95" fill="none" xmlns="http://www.w3.org/2000/svg">
<path id="Vector" d="M76.0228 41.953L70.0509 71.8134C69.7173 73.4815 69.5505 74.3155 69.1447 74.9947C68.7863 75.5952 68.2951 76.1058 67.7092 76.4881C67.0466 76.92 66.2199 77.1195 64.5666 77.5188L2.50005 92.5L17.4816 30.4338C17.8807 28.7802 18.0803 27.9534 18.5124 27.2907C18.8943 26.7049 19.405 26.214 20.0054 25.8554C20.6847 25.4498 21.5187 25.283 23.1867 24.9494L53.0469 18.9773M2.50005 92.5L37.359 57.641M89.2045 27.564L67.4363 5.79546C65.6166 3.97567 64.7063 3.06578 63.6572 2.72491C62.7345 2.42503 61.7401 2.42503 60.8174 2.72491C59.7683 3.06578 58.858 3.97567 57.0383 5.79546L53.6507 9.1833C51.8311 11.0031 50.9207 11.9129 50.5802 12.9621C50.2802 13.8851 50.2802 14.8792 50.5802 15.8022C50.9207 16.8513 51.8311 17.7612 53.6507 19.581L75.419 41.3497C77.2387 43.1693 78.149 44.0792 79.1981 44.4202C80.1208 44.7198 81.1152 44.7198 82.0379 44.4202C83.087 44.0792 83.9973 43.1693 85.8169 41.3497L89.2045 37.9616C91.0242 36.1419 91.9345 35.2321 92.275 34.1829C92.5751 33.2599 92.5751 32.2658 92.275 31.3429C91.9345 30.2937 91.0242 29.3838 89.2045 27.564ZM43.8566 41.953C48.9324 41.953 53.0469 46.068 53.0469 51.1434C53.0469 56.2192 48.9324 60.3337 43.8566 60.3337C38.7809 60.3337 34.6663 56.2192 34.6663 51.1434C34.6663 46.068 38.7809 41.953 43.8566 41.953Z" stroke="#4C8BF5" stroke-width="5" stroke-linecap="round" stroke-linejoin="round"/>
</svg>
